<?xml version="1.0" encoding="UTF-8"?>
<svg xmlns="http://www.w3.org/2000/svg" version="1.1" viewBox="0 0 512 512" height="512" width="512">
  <defs>
    <style>
      .cls-1, .cls-2 {
        fill: #fff;
      }

      .cls-2, .cls-3 {
        display: none;
      }

      .cls-3 {
        stroke: #000;
        stroke-miterlimit: 10;
      }
    </style>
  </defs>
  <!-- Generator: Adobe Illustrator 28.6.0, SVG Export Plug-In . SVG Version: 1.2.0 Build 709)  -->
  <g>
    <g id="Layer_1">
      <g>
        <rect class="cls-3" x="-24" y="-41" width="574" height="592"/>
        <path class="cls-1" d="M135.9,147.1c22.3-4.5,45.1-10.2,66.3-16.3-16.8-3.6-32.4-8.6-47.7-15.1l-20.1-8.5,18.6-11.4c58-35.5,101.2-50.9,150.3-44.4,41.4,5.4,86.7,26.1,148.8,59.1-31.7-45.4-77.8-80.9-130.9-96.2-19.3-5.6-39.4-8.5-60.3-8.4-1.4,0-2.8,0-4.2,0-49.1,1.3-101.9,20-154.7,63l-7.5,6.1-7.2-6.6c-15.8-14.5-25.3-34.5-32.1-54.6-11.2,46.2-18.3,101.7-11.5,143.2,22.6,1.1,56.8-2.7,92.1-9.8Z"/>
        <path class="cls-1" d="M457,355h0c-21.9.3-51,4-80.9,10-22.3,4.4-45.1,10.2-66.3,16.3,16.8,3.6,32.4,8.6,47.7,15.1l20.1,8.5-18.6,11.4c-58,35.5-101.2,50.9-150.3,44.4-41.4-5.4-86.7-26.1-148.8-59.1,31.7,45.4,77.8,80.9,130.9,96.2,65.7,19,142.3,7.9,219.2-54.7l7.5-6.1,7.2,6.6c15.8,14.5,25.3,34.5,32.1,54.6,11.2-46.2,18.3-101.7,11.5-143.2-3.5-.2-7.2-.3-11.2-.2Z"/>
      </g>
      <path class="cls-1" d="M365.5,176.7l-121.5-56.5c-8-3.7-17.6-.2-21.4,7.8l-86,184.9c-3.7,8.1-.2,17.6,7.8,21.4l121.5,56.5h0c8,3.7,17.6.2,21.4-7.8l86-184.9c3.7-8.1.2-17.6-7.8-21.4Z"/>
      <path class="cls-2" d="M250.4,125.8c-7-4-17,.2-22.3,9.4l-90.7,157.2c-5.3,9.2-4,19.9,3,24l119.2,68.8c7,4,17-.2,22.3-9.4l90.7-157.2c5.3-9.2,4-19.9-3-24l-119.2-68.8ZM259.1,137.2l-3.4,17,14.9,8.8-17.2,2-3.8,16.9-7.2-15.8-17.2,1.7,12.8-11.7-6.9-15.9,15.1,8.5,13-11.5ZM324.8,241.5c.7,5.9.3,12.1-.7,18.1-1,5.5-2.6,10.7-4.9,15.1-4.8,8.2-7.5,9.1-15.5,12.4v-6.6c-1.5-8.4-1.3-28.7-9.6-30.8-4.4,1-7.2,3.5-9.7,6.4-.9,4.5-2.7,9.1-5.2,13.5-3.8,6.6-9,11.9-14.7,15.4,8.7,7.6,20.3,22.9,15.3,31.5-1.1,1.6-2.7,2.9-4.5,3.4-7.8,2.7-17-7.5-22.1-6.9-1.4,3.2-1.7,7.1-3.2,9.8-1,1.9-3.4,4.1-6.3,4.4-3.5.4-6.8-1.3-8.8-3.3-4.1-3.6-4.4-11-10.7-16.2-6.7-1.9-13.2.4-19.4-1.2-2.8-.7-5.8-2.8-7.3-5.9-1.2-2.7-.5-5.8.7-7.7,1.8-3.1,5.2-4.9,6.9-7.6-4.9-7.3-15.1-7.6-17.1-15.7-.4-1.8-.1-3.9.7-5.6,9.5-10.3,24-6.2,34.9-2.5.2-6.7,2.2-13.8,6-20.4s6.5-9.2,10.5-12.5c1-4,2.5-7.8,1.5-12.1-3.6-2.6-7.8-.5-10.9,1-9.9,5.5-15.8,8.6-25.8,11.8-1.3-14.3,4-26.2,12-34,7.7-7.3,18-12,28.4-11.3,11.6,1.1,19.8,5.6,25.4,14.8,5.5-4.4,10.9-8.5,16.9-11.2,7.5-3.4,16.7-5.1,25.2,0,16.6,10,19.3,40.6,11.6,53.9h0ZM309.5,195.7c-16.1-7.9-30.6,8.2-41.7,17.1l-2.3-5.4c-4.9-9.9-10-13.7-20.4-14.5-7.2-.5-15.4,3-21.6,8.8-4.3,4.1-7.4,9.1-8.8,14.3,7.5-3.5,14.4-9.1,22.1-9.9,5.2-1.6,13.5,2.9,14.4,10.5.3,4.2-.4,8.2-1.4,12l31.2,18c.7-.7,1.4-1.4,2.4-2.1,3-2.3,7.4-5.1,12.8-3.8,8.8,2.9,12.3,11.2,14.2,18.9.8,3.2,1.3,6.3,1.6,9.3,1.4-3.1,2.6-7,3.3-11.1,3.5-19.2-3.6-31.6-22.5-31.5,5.2-6.5,16.2-11.2,26.8-.1.3-9.7-2.5-26-10-30.6h0ZM245,236.4c-2.7,2.4-5.3,5.5-7.3,9-4,6.9-5.4,14.2-4.7,20.3.7,6.1,3.5,10.7,7.8,13.2s9.7,2.5,15.4.1c5.6-2.4,11.3-7.3,15.3-14.2s3.4-7.3,4.2-10.9l-30.6-17.7ZM238.1,259.6l20.8,12s-7,4.1-13.9,0-6.9-12.1-6.9-12.1ZM224.9,271.4c-6.8-2-24-8.7-27.8-3.7,3.7,3.2,8.6,5.5,12,8.2,2.3,1.9,4.7,4.6,5.1,8.4.3,2.9-1,5.3-2.2,6.9-1.7,2.4-4.1,3.7-5.8,6.1,7.6,2.9,16.6-.5,22.6,2.5,7.1,3.7,8.3,14.9,13.5,18.3,1-2.6,1.4-5.6,2.4-8.1.8-1.9,2.2-4.2,4.9-5.4,3.5-1.6,7-.9,9.9.2,4.8,1.5,8.6,5.2,13.1,6.3.8-7.1-12.4-18.4-17.1-22.2-6.5,1.7-13.3,1.3-19.1-2.1s-9.6-9-11.4-15.5ZM259.5,328.6l7.2,15.8,17.2-1.7-12.8,11.7,6.9,15.9-15.1-8.5-13,11.5,3.4-17-14.9-8.8,17.2-2,3.8-16.9Z"/>
      <path class="cls-2" d="M277.6,130.9c-10.1.2-20.5,5.8-27.3,17.5-16.3-28.2-57.9-20.9-56.8,12.8,1.1,35.1,51.4,55.6,56.8,75.8,5-18.5,57.7-42.1,56.6-75.8-.6-19.7-14.6-30.7-29.3-30.4h0ZM343.4,198.3s-52,37.9-51,68.3c.8,25.9,27.3,35.2,44.1,20.1l-14.7,35.3h43.4l-14.8-35.3c17,14.7,45,6.2,44.1-20.1-1-31.6-51.2-68.3-51.2-68.3h0ZM161.3,199.5c-14.7,0-26.8,11.7-26.8,26.5s2.2,11.9,5.7,16.4c-1.1-.1-2.2-.3-3.3-.3-14.7,0-26.8,12.1-26.8,26.8s12.1,26.8,26.8,26.8,11.5-2,16-5.4l-13.4,32.2h43.4l-13.6-32.7c4.6,3.7,10.3,5.9,16.6,5.9,14.7,0,26.5-12.1,26.5-26.8s-11.8-26.8-26.5-26.8-2.5.2-3.7.3c3.5-4.5,5.7-10.2,5.7-16.4,0-14.7-11.7-26.4-26.5-26.5h0,0ZM250.3,287.7l-51.3,63.1,51.3,63.1,51.3-63.1-51.3-63.1h0Z"/>
    </g>
  </g>
</svg>